<svg width="868" height="899" viewBox="0 0 868 899" fill="none" xmlns="http://www.w3.org/2000/svg">
<path d="M845.206 339.86C845.706 342.02 843.536 345.4 847.916 345.79C849.066 350.7 850.066 355.7 854.656 358.79L855.016 361.59C854.086 365.27 857.926 367.48 859.266 367.47C862.436 367.47 860.796 363.96 861.266 361.93C861.776 359.59 860.116 356.31 864.176 355.62L864.476 361.21C864.316 365.95 864.626 370.76 863.866 375.4C863.246 379.26 858.866 382.96 864.196 386.6L864.406 390.2L867.616 393.78V413.37C862.376 415.6 864.376 420.06 864.366 423.9C864.366 425.67 864.366 427.45 864.366 429.22C863.866 432.42 863.146 435.7 867.626 436.74C863.136 445.39 866.076 453.88 867.366 462.69C868.006 467.03 859.116 469.02 860.936 475.46C855.736 479.53 858.876 485.33 857.866 490.27L854.766 494.35C852.466 494.15 851.906 495.48 851.236 497.48C849.076 503.99 855.626 503.6 857.996 506.48L857.786 513.34C853.786 514.5 854.626 517.59 854.926 520.47C854.786 522.39 854.656 524.3 854.516 526.22C850.026 527.22 851.256 530.49 851.576 533.42C851.506 534.33 851.426 535.24 851.346 536.16C846.926 537.21 848.116 540.66 848.176 543.62C848.106 544.56 848.046 545.51 847.976 546.45C844.266 547.14 844.836 549.9 845.056 552.45L844.936 555.36L838.816 575.36L838.526 578.13C834.936 579.08 834.866 581.75 835.336 584.68C834.646 593.2 829.956 600.18 826.486 607.68C825.924 608.696 825.657 609.85 825.716 611.01C828.556 627.32 817.316 638.85 810.836 651.49C802.306 668.14 790.836 683.26 780.766 699.14C780.126 700.14 780.766 702 780.876 703.46C782.882 702.69 784.836 701.791 786.726 700.77C787.726 700.18 787.536 697.15 789.476 699.16C790.256 699.97 790.176 702.77 789.376 703.78C773.526 723.84 754.676 741.05 736.666 759.06C736.376 759.35 735.666 759.29 735.236 759.39L732.006 763.15C729.076 764.15 728.936 766.89 728.096 769.21C716.676 777.6 712.016 792.15 699.456 799.74C685.526 808.16 673.196 819.3 657.236 824.24C654.396 824.04 651.326 823.24 650.106 827.1C643.936 826.72 641.736 829.52 641.036 835.77C640.176 843.42 631.226 840.27 627.196 844.18C622.996 845.28 618.506 847.31 615.496 842.23C612.696 837.51 612.036 844.05 609.876 843.18C609.396 842.99 608.276 844.37 607.446 845.03C608.996 845.71 610.496 846.72 612.116 847.03C613.976 847.36 615.336 847.71 615.066 849.97C605.416 853.47 595.786 857.03 586.066 860.45C577.516 863.45 568.906 866.34 560.316 869.27C557.756 869.15 554.826 868.27 554.196 872.18L551.466 872.43C548.546 872.5 544.816 870.63 543.936 875.58L531.206 876.02C528.306 875.68 525.036 874.43 524.066 878.89L515.276 879.19C504.276 879.45 491.906 875.48 485.076 888.83L483.136 889.05C478.376 889.59 472.726 885.76 469.136 891.94L463.266 892.14C457.836 892.68 451.816 889.96 447.266 895.06L440.346 895.17C433.346 896.35 425.716 891.86 419.296 897.68L412.356 898.18C407.406 892.74 400.976 895.95 395.226 895.27L382.436 895.04C376.746 889.79 369.766 892.97 363.436 892.13L318.486 882.13C317.206 878.51 314.256 878.96 311.396 879.22C294.716 875.22 278.556 869.64 262.266 864.33C245.416 858.84 238.326 842.06 223.206 834.98C210.996 829.36 199.456 822.29 190.616 811.63C189.966 810.83 186.666 811 185.796 811.89C184.596 813.14 185.966 814.32 187.706 814.89C188.356 815.08 188.456 816.7 189.136 817.28C192.526 820.2 199.296 825.74 197.876 826.28C191.716 828.8 185.286 827.47 178.826 823.19C172.366 818.91 174.666 810.42 168.736 806.63C168.346 806.38 168.106 805.63 167.736 805.63C150.276 804.63 147.976 785.36 134.526 778.22C121.596 771.35 111.326 759.02 101.526 747.3C92.5264 736.56 82.8864 726.43 73.5264 716.03C72.1264 711.82 69.8664 708.31 65.6464 706.41C65.6464 706.08 65.6464 705.75 65.6464 705.41C62.4564 701.11 59.1664 696.88 56.1664 692.41C55.5064 691.41 51.8764 690.19 54.8564 688.95C63.9564 685.14 54.4264 683.84 54.0964 681.38C48.2697 666.713 42.4464 652.073 36.6264 637.46C34.1664 634.07 33.6264 628.07 27.0164 630.26C25.8864 627.99 24.7664 625.73 23.6364 623.47C24.4364 621.09 23.0464 619.74 21.3364 618.54C21.0164 616.26 20.7031 613.987 20.3964 611.72C20.5164 607.88 21.5364 603.8 17.3964 601.19L16.9964 591.45C18.8764 589.45 15.2564 584.66 20.6264 584.52C20.8164 586.92 22.1364 588.21 24.4964 587.77C25.3664 587.6 26.7064 586.49 26.7164 585.77C26.7864 582.99 27.7164 579.64 23.7164 578.43C19.6564 560.43 15.4664 542.48 11.6364 524.43C10.6364 519.94 10.9064 515.21 10.6364 510.58C10.3164 507.04 12.6964 502.72 7.76641 500.48C7.7039 500.15 7.7039 499.81 7.76641 499.48V497.55L7.69641 494.55V439.45C7.69641 435.15 7.72974 430.847 7.79641 426.54V424.59C7.75053 424.258 7.75053 423.922 7.79641 423.59C13.0364 415.77 11.3264 407.67 8.7964 399.53C-5.0036 395.53 1.65641 384.2 1.28641 376.16C0.406411 356.89 1.11641 337.56 0.876407 318.26C0.826407 314.09 2.75641 309.83 5.39641 309.26C9.15641 308.44 7.06641 313.11 7.78641 315.31C8.59641 317.77 9.78641 316.68 11.0764 315.8C15.1464 313.13 16.6064 306.94 15.8664 304.8C13.0064 296.49 13.2064 292.55 23.0664 289.45C30.9364 286.96 25.9864 277.83 26.8464 271.68C27.6664 268.88 26.7364 267.46 23.7064 267.68L23.8564 264.75C31.4464 260.68 26.0664 254.18 26.8564 248.83C36.2664 232.46 46.0364 216.3 54.9564 199.68C61.7178 187.282 69.6542 175.561 78.6564 164.68C82.8964 163.86 81.2064 160.32 81.7964 157.83C86.2864 157.64 85.7964 154.83 84.9964 151.83C86.6764 147.01 90.4464 144.19 94.6164 141.75C97.9964 141.58 101.266 148.75 104.746 141.91C108.846 143.36 111.026 139.12 114.476 138.62C118.006 138.87 118.586 135.62 120.306 133.72C119.746 133.21 119.256 132.39 118.616 132.25C115.996 131.66 114.046 132.45 113.496 135.38L107.686 135.84L104.886 132.2L135.076 107.86L135.466 107.79L135.536 107.4L137.146 106.4C144.656 104.63 149.146 98.89 153.806 93.5L156.516 92.85L158.206 93.13L157.306 91.85C157.026 91.22 156.746 90.59 156.476 89.96L159.656 84.06C171.826 80.42 181.656 72.37 192.456 66.3C198.336 63.01 203.796 59.22 210.626 57.48C215.716 56.18 214.936 45.55 223.546 47.95C227.996 48.38 228.726 44.54 230.546 41.88L233.356 41.74C237.276 42.08 241.216 42.47 243.786 38.48L246.576 38.28C250.416 38.78 254.376 39.7 256.666 35.17L260.516 34.97C265.336 36.86 267.206 31.52 270.996 30.63C268.576 27.92 265.306 29.43 262.446 28.93C260.506 28.93 259.246 28.39 259.766 26.11C263.286 25.43 267.386 26.3 269.646 22.33L276.466 22.1C282.996 22.22 289.726 23.58 295.516 19.1C304.966 20.47 311.616 15.26 318.826 10.21C323.976 6.61 331.986 11.34 337.346 5.95C340.706 6.01 344.346 6.95 346.436 3.05L353.266 2.88C358.716 2.32 364.806 5.38 369.386 0H398.386C406.936 5.47 416.436 2.1 425.486 2.91L428.336 2.98H429.386L431.386 3.03C434.856 7.89 439.926 5.64 444.386 6.03L450.256 6.21C453.726 11.1 458.716 9.39 463.346 9.21L467.146 9.43C470.426 14.07 475.196 12.84 479.706 12.6L486.336 12.94C489.636 18.59 494.966 15.33 499.416 15.94L505.236 16.15C507.346 21.39 511.796 18.55 515.236 19.06C527.903 18.9253 540.539 20.3085 552.876 23.18C565.076 25.9 575.786 35.84 586.766 43.18C590.026 45.36 593.016 44.59 596.166 44.96L612.026 45.11C619.886 55.5 635.166 55.74 642.366 67.11C642.586 67.46 644.936 67.17 645.496 66.51C649.926 61.31 650.096 60.83 656.766 64.51C678.866 76.77 697.526 93.51 715.516 110.97C715.936 111.38 715.976 112.18 716.186 112.8C715.746 113.94 715.296 115.07 714.846 116.21C709.506 116.73 707.596 111 703.196 109.81C702.556 107.81 701.916 105.81 699.126 106.92L696.396 106.38C694.276 99.69 687.396 99.9 682.646 97.05C682.316 96.86 681.236 97.92 680.516 98.4C683.986 101.23 687.446 104.09 690.966 106.88C691.668 107.307 692.42 107.643 693.206 107.88L724.126 131.88L725.366 132.55L725.426 132.67C726.066 137.45 730.306 139.84 733.586 141.04C735.976 141.91 734.186 137.04 735.276 135.04C746.466 140.93 752.436 151.74 760.016 161.04C765.326 167.57 770.196 174.18 778.286 178.3C782.206 180.3 784.286 186.59 786.396 191.3C789.066 197.25 790.926 203.57 793.146 209.74C791.516 212.98 785.886 210.62 785.306 215.32C783.566 214.99 781.176 209.23 780.306 215.39C779.766 219.19 782.666 222.19 786.936 222.9L789.936 226.04C791.786 230.36 793.006 235.77 797.586 237.4C800.516 238.4 798.766 232.96 801.096 231.59L805.906 239.02C806.026 240.87 805.276 243.7 808.016 243.54C809.596 243.45 811.336 241.31 812.466 239.71C813.396 238.4 812.666 235.97 815.196 235.66L819.106 241.72C818.766 244.02 819.106 245.81 822.016 245.8L822.346 248.48C821.836 250.97 823.346 254.33 819.086 255.16C815.856 255.78 814.956 258.71 816.526 260.82C820.236 265.82 824.646 270.25 828.776 274.92C829.89 281.18 830.993 287.437 832.086 293.69C831.856 296.56 831.326 299.56 835.086 300.76C835.086 301.68 835.196 302.61 835.256 303.54C834.866 306.62 834.596 309.66 838.366 311.03L838.716 315.79C838.126 319.09 837.516 322.4 841.716 323.89C841.843 327.803 841.97 331.713 842.096 335.62L845.206 339.86ZM761.086 711.37C760.086 712.37 759.086 713.43 758.166 714.47C758.046 715.39 757.936 716.31 757.826 717.23C755.826 721.47 749.156 718.63 747.826 723.88L745.066 724.29C742.456 723.39 741.376 724.77 740.906 727.07L735.246 727.5C732.636 727.35 731.906 729.08 731.806 731.17C731.676 733.62 733.426 733.5 735.126 733.32C741.586 734.32 746.866 732.41 750.846 727.15C754.666 727.04 759.936 730.53 760.846 723.15C761.166 721.15 762.766 718.68 762.736 717.68C762.616 714.42 770.266 712.5 764.356 708.68L761.086 711.44V711.37ZM550.206 38.13L557.206 38.03C557.666 39.03 558.136 40.09 558.596 41.11L559.896 40L557.246 37.91C556.246 34.39 554.026 32.23 550.296 31.8C548.006 26.9 543.766 28.69 540.436 29.63C538.106 30.26 539.986 31.45 541.236 31.97C540.516 34.5 541.916 35.21 544.076 35.26C544.386 39.86 547.386 38.82 550.206 38.13ZM691.616 129.39C688.166 130.23 686.616 127.14 684.126 125.85C681.726 122.52 679.346 119.18 676.906 115.85C676.437 115.391 675.905 115 675.326 114.69C675.326 115.13 675.036 115.69 675.206 116C677.546 120.45 678.506 125.79 683.266 128.7L693.116 138.8C692.966 141.59 694.826 142.05 696.936 141.8C697.696 141.73 698.376 140.89 699.086 140.4L696.246 138.76L696.006 135.9C695.206 133.37 698.486 128 691.636 129.39H691.616ZM424.616 869.55C420.816 869.34 416.766 868.55 415.026 873.42C402.136 873.1 389.256 872.69 376.366 872.53C374.136 872.53 371.076 870.61 369.866 873.71C369.586 874.44 372.776 877.78 374.156 877.65C379.316 877.17 383.156 885.86 388.916 879.65L389.286 876.19C398.436 873.19 406.556 878.86 415.286 879.31C418.236 883.64 421.366 882.54 424.686 879.73C430.076 875.18 423.426 876.68 422.476 875.41C420.476 872.68 423.576 873.11 424.336 872.11C426.546 871.53 430.566 874.33 430.676 870.82C430.786 867.69 426.726 870.2 424.626 869.55H424.616ZM356.526 862.99C353.236 858.84 348.846 859.35 344.396 860.12L337.646 859.66C334.706 854.99 330.206 856.23 325.976 856.66C325.516 856.72 325.166 857.85 324.766 858.48C327.636 860.16 329.766 863.41 333.696 862.91C338.326 863.65 342.136 867.7 347.306 866.32C351.706 870.55 356.016 871.17 360.176 866C361.706 861.74 358.016 863.69 356.536 862.99H356.526ZM515.206 31.98C516.726 35.11 512.636 40.05 518.366 41.82L525.576 46.34C525.286 44.95 525.406 43.24 524.576 42.24C521.576 38.38 518.296 34.78 526.886 34.48C526.796 33.74 526.886 32.48 526.586 32.35C522.906 31.09 519.106 30 515.316 28.86C514.156 25.67 511.616 25.32 508.816 25.86C508.006 26.03 507.346 26.94 506.616 27.52C508.226 28.94 508.616 31.91 511.706 31.45L515.206 31.98ZM33.4964 620.53C37.6764 627.97 41.8564 635.403 46.0364 642.83C46.6864 643.97 47.4364 645.05 48.1364 646.16C48.6164 644.75 49.8864 643.01 49.4464 641.99C46.3464 634.76 42.8864 627.67 39.5464 620.54C40.3664 614.2 36.5464 609.93 32.8164 605.64C32.7264 605.54 30.6364 606.51 30.5064 607.18C29.6064 612.01 28.0764 617.09 33.4964 620.53ZM136.136 763.03C144.226 766.49 148.076 774.81 155.136 779.46C156.306 780.24 157.136 783.75 159.136 781.02C159.856 780.02 159.076 776.93 157.966 775.81C144.516 762.29 130.956 748.95 117.406 735.63C116.956 735.19 116.136 735.14 115.486 734.9C115.746 735.61 116.046 736.31 116.246 737.04C118.526 745.49 126.846 749.49 130.716 756.78C130.926 759.45 127.936 757.86 127.816 758.59C127.356 761.35 125.596 764.36 130.456 765.96C134.206 767.17 132.786 760.84 136.136 763.03ZM72.3564 701.41C71.4864 704.41 72.5164 706.41 75.3564 707.51C77.5564 717.68 86.9464 721.14 93.7664 726.95C94.9464 727.95 94.3064 731.39 97.0964 729.95C97.8064 729.58 98.0964 727.15 97.6464 726C96.2644 722.117 94.5723 718.352 92.5864 714.74C87.0064 704.94 81.1664 695.3 75.4164 685.59C74.7664 681.54 74.4164 676.7 69.4164 676.21C67.2664 676 69.3464 697.15 72.0364 698.66C72.1464 699.56 72.2064 700.48 72.3564 701.41ZM489.446 550.49C489.356 569.71 485.076 585.22 475.966 599.44C471.776 605.97 455.696 610.69 454.076 605.79C450.026 593.55 448.166 581.08 452.076 568.07C453.516 563.27 458.656 556.85 451.076 552.43C445.926 549.43 441.626 553.49 439.336 556.74C436.576 560.65 435.846 566.06 434.576 570.91C431.676 582.07 428.976 593.27 426.226 604.46C425.826 606.12 425.126 609.2 425.436 609.32C428.006 610.32 427.156 607.32 428.306 606.43C428.942 606.057 429.612 605.745 430.306 605.5C430.788 606.516 431.153 607.583 431.396 608.68C432.396 618.18 438.796 621.68 447.126 623.22C463.126 626.11 471.546 615.84 479.426 604.56C481.046 602.23 483.106 598.46 484.966 598.46C487.726 598.46 488.696 602.18 489.756 605.14C494.336 617.88 515.536 622.24 522.006 610.8C529.096 598.26 532.286 583.56 537.816 570.07C539.506 565.93 537.986 552.96 549.086 564.64C554.256 570.07 562.356 575.18 570.516 571C576.006 568.19 577.296 570.54 580.736 573.65C588.156 580.36 597.406 585.71 606.616 577.97C613.766 571.97 619.566 569.58 628.066 574.66C629.716 575.529 631.596 575.864 633.445 575.619C635.293 575.373 637.02 574.559 638.386 573.29C644.736 580.49 655.806 545.29 659.616 575.65C659.935 577.105 660.356 578.535 660.876 579.93C663.726 590.42 679.456 600.61 688.226 599.93C710.886 598.22 718.316 580.51 727.576 564.5C728.256 563.33 727.576 561.36 727.506 559.76C726.206 560.53 724.666 561.06 723.646 562.1C717.986 567.81 712.646 573.82 706.826 579.38C701.916 584.1 696.286 583.05 693.496 577.61C682.496 556.22 684.416 534.7 694.296 513.38C704.296 491.79 715.396 470.52 715.296 445.76C715.296 441.97 715.296 438.27 710.966 436.65C706.796 435.11 702.966 435.22 699.416 438.53C676.176 460.24 671.316 490.75 660.716 518.53C656.126 530.59 660.346 544.61 651.316 555.71C646.316 561.82 641.416 569.57 633.396 568.11C624.866 566.56 628.826 557.54 628.286 551.51C628.136 549.85 628.196 548.18 628.156 546.51C628.104 545.098 627.584 543.743 626.68 542.657C625.775 541.572 624.536 540.816 623.156 540.51C620.446 539.78 619.666 542.66 618.606 544.82C615.426 551.29 612.146 557.73 608.516 563.96C607.516 565.72 604.356 568.21 603.576 567.79C600.876 566.33 601.896 563.16 603.026 561.18C607.316 553.66 612.916 546.74 616.226 538.84C618.466 533.5 634.126 527.84 617.856 521.07C613.506 519.26 607.956 519.53 603.076 520.01C593.076 521.01 579.356 539.72 576.776 555.14C576.076 559.29 574.666 563.77 570.846 565.22C565.686 567.22 560.206 566.31 556.846 560.92C553.646 555.76 551.026 550.22 547.556 545.27C545.036 541.69 540.256 540.27 536.686 541.91C532.826 543.74 534.926 547.39 536.916 550.39C537.309 551.109 537.546 551.903 537.609 552.72C537.673 553.537 537.563 554.359 537.286 555.13C532.096 567.13 529.476 580.07 522.446 591.3C520.866 593.82 519.446 594.84 516.596 594.64C513.746 594.44 513.056 592.64 511.496 590.81C505.376 583.57 513.256 576.27 510.736 568.92C508.146 561.36 505.326 553.33 505.406 545.53C505.526 535.17 497.406 532.12 491.676 531.25C487.536 530.62 490.586 539.48 489.626 543.98C489.096 546.08 489.466 548.33 489.446 550.49ZM295.656 400.06C295.656 407.95 295.316 417.29 295.726 426.59C296.466 443.31 319.486 454.76 333.936 446.97C345.876 440.53 349.546 428.66 356.316 418.76C358.206 416 359.986 413.17 361.816 410.36C364.896 412.77 362.816 416.27 363.676 419.15C364.876 423.21 365.516 427.61 367.576 431.15C370.136 435.6 373.156 440.68 379.836 439.15C384.376 438.15 385.476 434.43 385.736 430.42C386.812 414.081 391.407 398.168 399.206 383.77C406.426 370.42 411.506 355.42 423.486 344.89C425.576 343.05 427.706 341.72 430.116 343.18C432.526 344.64 435.436 346.6 434.506 350.18C431.84 360.58 429.03 370.953 426.076 381.3C423.986 388.78 423.356 396.4 426.076 403.67C428.386 409.89 433.986 410.76 440.136 410.29C449.136 409.59 469.996 386.79 469.796 377.45C469.631 376.721 469.343 376.024 468.946 375.39C468.287 375.794 467.656 376.242 467.056 376.73C461.656 381.73 456.406 386.98 450.836 391.83C447.596 394.65 444.116 399.13 439.446 397.04C435.046 395.04 436.526 389.5 437.496 386.19C441.056 374.02 441.236 361.71 440.956 349.26C440.766 341.26 436.656 338.15 429.096 339.15C411.606 341.47 406.946 356.97 398.776 368.86C396.016 372.86 395.776 379.8 390.386 380.3C387.916 380.53 388.646 373.98 389.456 370.95C395.456 348.4 401.796 325.95 413.586 305.49C417.086 299.4 418.106 290.05 425.006 288.23C434.476 285.72 432.466 281.98 428.466 277.15C424.466 272.32 420.206 266.63 414.766 263.81C407.686 260.11 398.556 258.03 393.166 266.73C387.106 276.51 383.396 287.58 378.806 298.15C365.856 327.96 366.096 359.99 360.806 391.05C357.806 408.52 350.186 422.4 334.946 431.75C332.466 433.27 329.736 433.75 328.036 430.69C324.196 423.79 322.186 416.39 321.036 408.51C317.766 385.67 329.036 365.37 331.886 343.61C332.596 338.22 335.196 332.8 342.646 331.67C347.786 330.88 352.696 328.07 357.456 325.67C359.386 324.67 360.636 322.4 362.196 320.67C359.816 319.19 358.006 320.37 355.856 321.57C343.436 328.5 334.986 323.89 334.366 310.05C334.266 307.72 334.906 304.76 333.726 303.21C331.346 300.06 332.506 292.73 323.976 296.01C313.206 300.15 311.426 309.61 308.766 318.26C305.766 328.13 303.216 337.48 291.056 339.36C289.286 339.63 286.446 339.36 286.666 342.24C286.896 345.32 289.616 345.64 291.996 345.38C297.746 344.76 299.646 347.63 298.726 352.75C295.927 368.354 294.897 384.225 295.656 400.06ZM337.056 643.56C337.056 635.78 336.976 635.75 352.056 620.24C354.25 618.187 356.549 616.251 358.946 614.44C359.436 617.44 360.276 620.44 360.366 623.49C360.806 638.82 372.136 654.92 383.456 656.01C399.386 657.56 425.456 631.71 424.276 615.48C424.053 614.409 423.686 613.373 423.186 612.4C422.269 612.949 421.446 613.641 420.746 614.45C416.296 621.7 412.556 629.53 405.566 634.79C401.446 637.89 395.566 638.94 392.746 634.71C387.666 627.2 385.476 618.41 385.306 608.93C385.006 592.12 393.496 577.15 394.746 560.98C395.996 544.81 402.796 535.67 418.746 532.98C421.696 532.48 424.276 529.85 427.026 528.21C424.736 525.21 421.216 526.34 418.866 526.99C406.766 530.33 399.366 529.25 400.866 513.53C401.236 509.64 398.866 502.68 392.716 501.12C386.816 499.63 383.576 504.12 380.766 508.17C378.884 511.026 377.391 514.12 376.326 517.37C372.076 529.81 370.236 544.04 353.326 546.56C352.686 546.66 352.156 547.56 351.576 548.04C352.051 548.464 352.596 548.802 353.186 549.04C363.386 551.04 365.186 557.77 363.496 566.76C362.326 573.07 360.496 579.52 360.836 585.82C361.626 602.74 348.786 610.57 338.706 620.01C336.506 622.07 331.706 626.67 327.706 622.84C321.576 617 316.236 610.3 310.776 603.78C307.216 599.54 307.696 595.32 309.986 590.08C315.076 578.38 316.556 566.69 304.336 557.59C301.086 555.16 297.886 555.21 296.276 558.44C291.016 569.02 286.606 580.19 289.146 592.19C290.726 599.64 292.446 608.72 297.496 613.45C309.596 624.79 316.956 637.34 306.196 650.64C300.096 658.2 294.146 666.53 295.626 677.39C295.853 678.307 296.189 679.193 296.626 680.03C297.056 679.63 297.816 679.25 297.846 678.82C298.586 668.88 306.656 663.42 311.756 656.18C312.756 654.72 315.066 652.84 316.346 653.11C319.256 653.73 317.956 656.66 317.776 658.61C317.146 665.143 315.098 671.459 311.776 677.12C310.516 679.33 305.866 682.12 309.716 684.44C312.666 686.24 317.516 688.09 321.056 683.59C329.806 672.63 337.946 661.57 337.056 643.56ZM107.686 660.72C107.686 673.09 108.216 682.12 107.526 691.05C106.906 698.99 113.056 699.53 117.526 700.67C124.436 702.45 134.976 701.47 135.426 694.88C136.866 673.88 143.506 653.88 145.896 633.26C147.456 619.74 153.896 612.64 165.256 607.04C178.256 600.57 193.016 596.78 203.036 585.1C204.295 583.441 205.431 581.693 206.436 579.87C204.576 579.45 202.736 578.93 200.866 578.61C189.656 576.69 181.516 586.75 170.216 586.27C165.346 586.07 159.946 590.88 155.216 586.01C149.756 580.45 154.826 574.85 156.806 570.01C158.706 565.3 163.306 562.41 169.086 562.23C172.519 562.115 175.918 561.506 179.176 560.42C191.056 556.42 201.176 547.69 215.006 548.92C220.276 549.39 224.776 545.35 226.686 540.25C228.456 535.53 227.996 530.75 222.776 527.84C221.186 526.96 218.886 526.39 218.496 528.26C217.286 534.03 212.496 532.51 208.986 534.08C202.496 536.93 195.746 536.63 189.206 537.55C172.806 539.8 157.206 547.04 140.206 545.45C139.276 545.36 137.756 545.59 137.396 546.2C132.586 554.35 126.516 554.05 118.916 550.08C117.306 549.24 112.916 544.08 111.536 549.33C109.246 558.27 110.836 568.68 120.276 571.51C136.376 576.34 128.796 586.42 127.276 594.94C125.946 602.22 119.826 604.32 112.946 604.79C109.406 605.04 105.946 603.22 102.266 605.47C95.0064 609.96 96.6364 618.89 99.5264 621.47C113.606 633.98 105.376 649.95 107.686 660.72ZM247.976 656.1C270.276 656.28 283.456 642.29 294.636 625.54C295.806 623.78 294.636 620.47 294.546 617.88C293.866 618.08 292.966 618.07 292.546 618.51C290.146 620.95 287.866 623.51 285.546 626.03C278.196 634.03 270.956 642.67 260.246 645.96C249.096 649.38 243.116 641.06 238.386 633.08C234.476 626.47 235.596 618.65 238.446 611.93C239.726 608.93 242.766 610.63 243.826 614.05C245.036 617.95 247.446 620.29 252.076 620.47C256.706 620.65 260.566 619.42 262.156 615.07C265.156 606.87 268.036 598.32 266.006 589.53C262.766 575.53 249.326 577.07 239.466 573.18C236.086 571.84 233.886 573.79 232.126 575.88C219.936 590.35 210.376 604.88 217.126 625.88C225.546 652.28 227.956 655.97 247.976 656.1ZM505.266 394.23C528.506 394.29 546.656 380.52 554.266 357.23C555.726 352.74 557.576 348.38 559.266 343.97C553.756 346.41 553.526 352.61 550.266 356.64C541.766 367.12 533.266 377.88 520.816 383.82C514.696 386.73 508.256 385.5 502.816 380.6C496.596 374.98 492.976 367.88 493.666 359.85C493.906 357.09 496.416 342.9 503.666 357.27C504.086 358.1 506.016 358.22 507.286 358.54C519.286 361.64 520.376 352.3 523.336 344.71C527.506 334.03 525.336 321.92 516.336 318.76C507.916 315.76 495.886 306.76 486.196 318.95C476.106 331.63 471.506 345.39 473.086 362.16C474.816 380.5 487.086 394.18 505.266 394.23ZM751.206 498.09C751.586 518.45 749.416 535.54 757.916 551.24C758.816 552.9 758.346 555.49 761.226 555.32C764.446 555.14 763.846 552.5 764.086 550.45C765.186 541.31 762.836 532.13 765.836 522.89C770.176 509.53 773.416 495.8 776.836 482.16C779.686 470.9 781.246 459.23 785.066 448.33C789.996 434.33 783.816 423.75 768.936 423.96C765.226 424.02 759.466 421.16 758.356 427.96C754.356 452.37 750.206 476.78 751.206 498.09ZM777.066 579.82C776.906 576.01 778.256 570.64 772.626 570.49C769.146 570.4 762.766 570.79 764.286 577.39C765.376 582.12 759.836 590.08 768.806 591.13C775.906 591.96 777.206 585.84 777.016 579.82H777.066ZM448.696 523.63C441.696 524.63 441.786 530.43 440.996 535.56C440.466 538.95 442.646 539.56 445.296 539.27C451.886 538.56 453.356 533.73 453.756 528.27C453.996 524.99 452.266 523.34 448.696 523.63ZM171.496 784.63L166.566 786.13C167.146 787.13 167.696 788.18 168.326 789.13C171.616 794.3 177.416 795.92 182.266 798.88C183.045 799.235 183.865 799.493 184.706 799.65C184.956 798.55 185.776 796.82 185.366 796.46C180.706 792.36 175.856 788.37 171.496 784.69V784.63ZM634.326 823.26C628.926 827.05 623.456 830.87 618.026 834.78C617.756 834.98 617.836 836.3 617.966 836.33C618.866 836.59 620.066 837.07 620.736 836.69C626.016 833.737 631.233 830.67 636.386 827.49C637.136 827.02 637.466 825.85 637.986 825.01L634.326 823.26ZM805.326 299.45C804.326 300.99 803.226 301.86 803.276 302.66C803.626 307.82 800.876 313.57 806.186 317.87C807.696 319.09 809.346 318.78 808.576 317.31C806.076 312.53 805.576 308.2 808.576 303.5C808.816 303.15 806.796 301.31 805.316 299.51L805.326 299.45ZM818.826 377.37C819.756 379.54 817.766 383.87 821.376 383.77C825.766 383.64 825.626 379.07 825.876 375.65C826.076 373.02 825.336 371.18 822.046 371.4C817.586 371.75 819.396 375.11 818.816 377.43L818.826 377.37ZM331.516 55.55C335.406 55.26 337.516 55.19 339.566 54.92C341.356 54.69 344.046 55.32 343.676 52.17C343.406 49.94 340.906 48.02 339.576 49.09C337.266 50.94 331.806 50.45 331.516 55.55ZM23.3164 328.94L25.1464 332.18C26.7964 329.18 28.6064 326.18 29.9864 323.01C30.2664 322.37 28.9864 321.01 28.3964 320.01C25.8764 322.15 23.5964 324.41 23.3164 328.94ZM725.206 738.04C724.776 736.8 725.576 733.88 723.326 734.66C721.516 735.29 720.096 737.93 719.216 739.99C719.014 740.361 718.923 740.782 718.954 741.204C718.985 741.625 719.137 742.029 719.391 742.366C719.645 742.704 719.991 742.961 720.388 743.107C720.784 743.253 721.214 743.282 721.626 743.19C724.556 742.87 725.096 740.63 725.206 738.04ZM646.886 797.39L642.136 799.82C643.576 801.19 645.046 803.66 646.456 803.64C647.866 803.62 649.386 801.18 650.846 799.81L646.886 797.39ZM476.556 867.07L482.256 864.75C481.016 862.14 478.546 863.06 476.646 863.12C474.746 863.18 472.846 864.12 470.946 864.7L476.556 867.07ZM778.656 262.53C779.456 260.53 780.086 259.47 780.226 258.39C780.416 256.82 780.666 254.78 778.226 254.89C777.188 255.112 776.26 255.692 775.606 256.53C776.488 258.596 777.507 260.6 778.656 262.53Z" fill="#B3E1DE"/>
<path d="M682.796 505.71C686.856 488.86 689.576 468.65 700.056 450.83C701.526 448.33 703.756 443.77 707.536 446.06C711.316 448.35 709.736 453.3 708.846 456.67C703.418 476.849 696.21 496.506 687.306 515.41C686.586 516.97 687.206 520.22 684.256 519.41C683.366 519.17 683.086 516.01 682.846 514.14C682.606 512.27 682.796 510.51 682.796 505.71Z" fill="#B3E1DE"/>
<path d="M327.706 314.9C327.86 316.724 327.843 318.559 327.656 320.38C327.046 323.69 329.656 329.7 323.656 329.05C319.406 328.6 317.166 323.72 318.206 318.85C319.055 314.306 320.238 309.83 321.746 305.46C322.366 303.79 324.686 302.75 326.236 301.46C326.866 303.25 327.344 305.09 327.666 306.96C327.876 309.56 327.696 312.24 327.706 314.9Z" fill="#B3E1DE"/>
<path d="M325.276 348.19C323.346 354.65 321.326 361.73 319.036 368.73C318.786 369.48 316.966 369.73 315.866 370.19C315.716 369.08 315.116 367.77 315.496 366.88C318.146 360.66 316.936 354.1 317.416 347.7C317.676 344.15 317.026 339.06 321.996 339.28C327.206 339.51 323.446 344.63 325.276 348.19Z" fill="#B3E1DE"/>
<path d="M382.206 557.83C382.54 554.17 383.175 550.545 384.106 546.99C384.776 544.69 386.666 541.29 390.386 543.61C393.386 545.49 392.526 548.54 391.766 551.24C390.096 557.18 388.246 563.06 386.486 568.97C385.866 571.03 386.816 574.78 383.906 574.53C380.996 574.28 382.426 570.71 382.246 568.53C382.066 566.35 382.206 563.92 382.206 557.83Z" fill="#B3E1DE"/>
<path d="M393.016 520.49C390.496 524.42 396.546 531.66 388.906 533.15C384.036 534.15 385.436 528.63 385.296 525.67C384.976 519.16 385.166 511.79 391.026 508.58C392.696 507.63 391.406 516.25 393.016 520.49Z" fill="#B3E1DE"/>
<path d="M256.706 595.75C256.786 602.28 256.116 607.75 248.136 607.83C244.136 607.9 242.526 605.83 243.306 602.27C244.636 596.21 247.096 589.81 253.556 588.7C258.806 587.79 255.786 593.56 256.706 595.75Z" fill="#B3E1DE"/>
<path d="M516.046 333.54C513.046 338.65 515.166 346.92 506.576 348.61C503.346 349.24 499.426 346.01 500.156 344.08C502.706 337.4 503.856 328.71 512.736 327.08C516.746 326.41 514.616 331.05 516.046 333.54Z" fill="#B3E1DE"/>
</svg>
