<svg id="Layer_1" data-name="Layer 1" xmlns="http://www.w3.org/2000/svg" viewBox="0 0 1192.7 264.2">
  <defs>
    <style>
      .cls-1 {
        fill: none;
        stroke: #000;
        stroke-miterlimit: 10;
        stroke-width: 1.42px;
      }
    </style>
  </defs>
  <path d="M218,1399.9h-3l-.8-56.9s2.3-10.1-2.3-12.7c.8-9.1-2.2-17.1-5.6-25.5-2.3,7.5-6.8,13.3-6,21.3.3,2.7.6,5.6-2.5,6.3l-4.7-13.4-5.3,13.1H181l-.4-78H179v1.5H158V1254h-2v76.5h-4.9s-1-10.2,1.1-15.7c.2-.6.3-1.7-.1-2s-.4-3.8-1.3-5.4c-7.6-12.3-9.3-28.2-20.5-38.4-1.6-1.6-3.9-2.5-6-3.9,0-.8.2-1.9-.2-2.3-2.3-1.9-2.3-4.9-3.5-8.1-1,11.2-12.9,14.6-17.5,24.2S97,1299.1,90,1306.8V1331H86v-75.6l-.9.7-.3-2.1c-3.8,4.4-23.2,1-23.3,2a8,8,0,0,1-.6-2H59v43.1c-10.5-.4-27.3-9.2-37-9.3,1.7-5.2-4.1-8.4-8-11.2,1.7-8.5,1.5-8.7-1.7-17-2.4,2.4-1.3,6.6-4.8,8.8l3.7,6.4c-3.9,3.9-10.8,6.6-9.2,13.3-31,7.6-72.7,16.4-79.5,53.3-3.4,3.2-8.8,3.6-12.5,5.4.1,7.3-.2,15-.2,21.9-1.6,2.5-5.7.8-8.1,1.3,1-11.1-6.2-19.9-9.1-30.4l-3.6,8.5c1-9.9-1.2-15.2-5.6-22.3-1.8,3.1-1.7,6.8-4.5,8.6-.2,4.6.6,7.6-.5,12.1-4.6-3.2-4-8.9-7.2-12.6l-5.6,12.2-1.3-.2c-1.6-4.2,1.3-9.5-1.9-12.9a9.3,9.3,0,0,1-2.3-7h-1.4c-4.1,6.6-4.5,12.9-5.6,21.1-1-2.8-2.1-5.5-3.2-8.5-1.3,9-9.9,22.4-9.9,22.4v9h-11v-96.7l-4-.3v-21l7.6-4.2-25-17.5-59,26.3,7.5,3.7,1.4,8.5-7.8,4.3V1400H-258v-13.7c3.3-1.6,4.6-2.8,4-6.3h-4c-.8-10.4,2.5-3.9,2-11h-5c-1.2-4.8,2.5-8.3,2-12.3l-3-1.1c-1.2-7.4,4.1-5.7,3-12.4l-2.2-.3c-5.2-7.5,8.2-9.2-1.4-15.6,2.5-5,4.6-9.8.9-14.8,3.4-4.8,2.7-4.6,2.7-11.4-8.7-1.8-8.3-6.2-14.7-9.9-16-3.1-35.1.3-46.7,12.3-.6,6.4-.2,9.6-5.6,14.2v4.9c2.8,2.1.4,6.6.7,9.8s2.5,8.1-.7,9.9v4.6c3.4.4.9,5.9.1,7.1.6,5.8,2.9,10.4-.3,14.4,2.5,3.2,2.4,5.3,2.2,9.3a25.9,25.9,0,0,0-4.3,2.5c1.5,2.4.7,3.1,3.3,2.8v16.3h-50v95.2H817.7V1400H785c.7-6.4-.6-11-4-15.5-.3-10.7,1-22.1-1.6-32.1s3.3-22.1-3.3-30c-3.8-3.1-.9-8.1-4.7-10.9-.9,4.9-.3,10.5-4.8,13.4-3.4-3.5-.9-9.9-1.6-14.9H670.9c-4.3-4.8-.8-13.6-1.9-20.1-1.7-.2-3.7.6-5-1.9,1.8-7.7-1.8-16.2,1.2-24l-4.2-1.8c-.4-3.6,1.6-8.8-2.8-11.2-.7-9.2,4.1-8.9-2.5-17.9-1.2,2.5-.9,5.5-3.9,6.2-.3,5.5,4.1,13.1-2.1,16.6l1.1,1.4-.9,1c1.5,1.1-.4,3-.6,4.7H647v26l-5,1.3c-.9,7.2,2,16.3-1.3,22.4-10.7-4.1-27.3,4.3-34.8-4.6l.4-.2-3.2-5.7c2.7-2.8,4.1-5.4,8.2-3.2a174.6,174.6,0,0,1,20.1-18.3l-3.1-5.1c-10.7,5.3-18.1,16.2-27.4,23.7-.9.7-2.6-1.1-3-1l-4.4.7a5.2,5.2,0,0,1-1.9-6.9L571.5,1272l-4.7,4.3c7.5,9.2,19.1,15.8,25.1,25.6-2.7,4.3-4.3,7.6-9.1,9.5-5.9,5.4-11.5,12.1-17.1,17-.1,2.8,2.3,4.3,3.6,6.8,6.4-7.1,12.3-14.9,20.7-19.7-.9,7.6-.3,14.5-3.1,20.8-.2,4.5-4.1,7.9-3.1,12.8-4.7-1.6-8.3-.6-12.6-1.2l-1.3,1.4c2,7.5,8.2,5.6,14.7,5.7-1.7,15.3-3.9,30.8-7.6,45H562v-82H478v-12l-19,.2s1.4,34.8,0,51.7l-16-8.6c.8-4-1.1-5.7-4.8-6.9-6.3,7.4-3.4,8.1-7.7,11.4,5.1,1.9,3.5,18.1-3.4,11.6.4-2.5-.8-5.3.8-8-.1-.2-.4-.6-.5-.6l1.4-1.8c-1.7,1-3.9,2.4-7.2,4.2a12.3,12.3,0,0,0-.2-1.3c-11,3.6-3.2,31.7-5.4,43.1h-2v-42.5c-.9.1-3.2-1.7-3.2-1.7v-41.7h-1v2.9h-10v-2.9h-1l.2,25.9H383v-10.8h-1.6v2.8H355.7v-2.8h-1.1V1341H341v-33.3h-2v3.7h-8.8v-3.7H328v81c-29,4.4-19.4-3.3-20.9-26.1,5.6-1.5,17.6,7.1,13.6-4.3-11.9.3-23.9-2.6-35.2-4.8l-.9,1,1,4.6c22.4,1,17.4,1.3,16.6,20.9-4.5,4-11.5-.3-17-.4.4,8.1,9.4,4.5,14.7,7.7l.8-.7c2.7,2,.7,11,1.3,10.9a5.3,5.3,0,0,0-1.3,1.5H262.8c-2.7-1.7-1.6-3.3-.9-4.9-2.7-2.6,2.2-4-1.2-6.5l2.4-1.2c4.4.1,10.2-2.2,14.9-2.9v-3.3c-5.7-1-10.2,1.7-15.9,1.6,0-27.5-8-18.2,16.9-24.2a5.9,5.9,0,0,1-1.2-3.5c-12.1.2-23.3,4-35.5,4.1-5.4,10.9,9.1,2.2,13.8,2.9.3,9.2-1.2,36.3-1.3,38.9H236v-48.3l-2-.7v-5.6c-3.4-.3-5-9.1-6.3-12.1-1.7,3.1-3.3,6-4.8,8.9.4.6-3.4,5.3-2.9,5.8a15.1,15.1,0,0,1-3,3Zm-508.1-96.7c6.8-2,20.6-1.4,24.5,6.5-2.5,3.6-2.5-.6-4.8-1.1-15.3-8.2-30.5,2.1-44.5,8.4h-4.9C-312,1309.7-299.6,1308.2-290.1,1303.2Zm-29.3,32.7c6.1-7.8,14.3-8.1,23-7.8,8.5,1.9,33.8-5.8,34.8,4.9-7.1-3.6-14.4-3.1-22.2-2.9-3.1-.9-3.7,1.6-6.1.9-7.2-1-13.6.6-21.4,1.4C-313.1,1333.4-314.8,1336.3-319.4,1335.9Zm56.4,25.7c-2.9,1.4-6.2-4.1-8.6-.4-9.8-3.8-21.1-1.1-31.6-1.2-1.4.1-2.8,1.1-4.8,1.8-3.1-1.2-5.8,2.9-9.5,2.1-1.9-7.8,17.3-4.8,21.1-7.9,10.7,2.6,22.8-1.5,33.4,3.3Zm71,11.4V1272h2v101Zm-3.5-117.4c-6.5,4.4-13.7,7.9-20.5,11.7-5.9,1.7-11.6,2.5-17,4.9-5.2-4.8,3-7.8,6.8-7.7,12.6-2.6,22.9-10.1,33.9-16.5,4.5,4.4,11.4,5.9,12.7,13C-185.1,1264.5-189.1,1250.4-195.5,1255.6Zm36.5,144.1c-2.8.5-2.6-2.2-2.7-3,.9-6.1-3.1-16.3,2.7-20.1Zm41-.7h-21c.5-8.4-2.8-17.2,6.2-22.1C-117.1,1375.6-117.2,1386.6-118,1399Zm22-1.2a4.1,4.1,0,0,1-2,1.7v-22.4c.7-.1.9-.2,1-.4a13.3,13.3,0,0,1,.5,1.9c.3-.2.5-.4.5-.6ZM-9,1354h3.7c.7,2.9-.2,5.8-1.3,8.3h-1l-.9-2.4-.5.5Zm0,10h4v7H-9Zm-1,6.2c-2.7.5-2.7.5-5-.8V1364h5Zm5,10.6-2,1.7c-3.1-1.9-3.3-9,.7-9.8C-3.9,1374.4-5.4,1377.9-5,1380.8Zm6-9.8H-3v-6.7l4-.2Zm0-10.1-1.9,1.7c-3.4-1.7-1.7-5.3-2.1-8.8l4-.2Zm6-.4-2,1.6c-3.2-1.6-1.7-4.9-2-8.1H7ZM28.2,1333,24,1321.1c-9.7,6.7-5.1,68.3-6,78.5l-2,.3c2.7-2.2-7.3-68.4,8.2-84.3,1.8,4.9,3.5,9.5,5.2,14.4H57.1c.3-7.8-.2-15.4.3-23,2.2-.3,1.4.8,2.9,3C60.9,1343.2,62.6,1330.7,28.2,1333Zm38.4-59.5-.4.4c-2-3.7-.1-6.4,2.9-9.9C86.7,1262,77.7,1284.4,66.6,1273.5ZM126,1466h-5v-18H103v17H98c1.8-5.5-4.8-45,5-37.8V1442h18c.8-4.2-2.9-19.1,5-14.5Zm98-115.8c1.5-2,3.5-.9,5.7-1.2-.4,3.6,3.2,7.1-.8,10.7C222.5,1361.3,224.1,1355,224,1350.2Zm-1,27.1c2.8-.3,5.8,0,9-.2V1400h-9ZM150,1454v-5h4.4c-1.8-4.1-3.3-7.3-5.1-11a41.8,41.8,0,0,0-4.9,10.3c4.3,1,2.4,4.7,2.4,4.7-10.1-2.8-5.7,15.1-16.3,12,5.2-12.5,11.8-24.2,17.1-37,5.2-.5,4.1,7,7.4,9.4,3.2,10,9.4,18.4,12.3,28.6C157.1,1468.5,161.4,1450.6,150,1454Zm43.5,0c-4.9,1.2-8.6-4.7-1.2-5.5l-5.2-10.6-4.5,10.2c2.6,1.5,5,2.8,1.9,4.9-9.3-2.7-6.2,14.9-15.4,12,4.3-12.6,11.6-25.8,17.9-37.9,5.7,7.5,8.5,16.3,12.7,24.7,2.1,4.8,5.3,8.8,5.4,14.2C196.8,1468,199.2,1457.8,193.5,1454Zm5.3-69c-1,9.9,5.3,15.5-7.8,14v-14Zm-6.8-3v-11h6v11Zm14-12.3c-4,.4-4,.4-6-1.1,0-2.1-.6-6.9,1.8-8.2l4.2,1.6Zm1.9-7.5c-2.4-4.9-9.9-5.3-9.7-13-.1.8-.3,1.7-.4,2.8H193c-.7-3.7,1.2-5.6,4.5-5,1.9-3.2-1.7-4.5-4.5-4-1.6,7.1-.9,15.5-10.2,16.7-1.4,8.7,3.2,38.4-2.8,41.5v-43.6c3.6-2.4,7.6-.5,8.9-7.5-1.2-5.5,2.6-13,10.1-8.7,5.7,7.8,1.6,16.6,10.5,14.9.7.7.9,30.8.3,44.7C204,1399.4,207.4,1368.9,207.9,1362.2Zm7.1,86.9V1466h-5.6c-.3-12.6,0-25.2-.1-38,.7-1.3,3.1-1,4.3-1s3.8,4.2.4,6.2v9.9C216.9,1445.3,216.3,1446.2,215,1449.1Zm20.1,16.9c-5.8.9-5.9-1.7-9-5.9s-9.9-9.6-9.1-16.1c7.8-.2,14.5,1.9,13-8.8-3.1-2.3-3.1-2.3-11.7-2.5-4.7-4.2,2-8.3,6-4.9,13.8-2.4,16.4,20.3.3,21.5C227.3,1455.8,235,1459.1,235.1,1466Zm26.9-.2c-6.5.4-13.2.1-20,.2v-37.9l3.3-1.2c4.9,6.3-.4,18.8,1.9,32.9,3.6,2.8,9.9.5,14.8,1.2Zm33-.8H270c2.9-37.1-11.9-37.8,24-35.7v3.7H275v11h18v3H275v13h20Zm41.9-8c-1.6-3.5.1-7.3-1.8-10.7-.6-1.3-.1-3.2-.1-5.8-4.7,8.7-8,17.1-12.4,25.3-6.7-6.6-8.6-16.4-13.2-24.5-.6,8.1-2.6,15.5-3.4,23.7h-4.8c.3-12.5,4.9-25,4.9-37.9,7.9,6.8,10.2,19.3,15.7,29,5.2-10,9.2-19.7,14.5-29,3.3,4.2,2.9,11.9,3.7,17.1.3,7.2,2.2,13.6,2.2,20.8C335.2,1466.6,338,1461.1,336.9,1457Zm57.1-77H343.4C332.5,1338.2,402.5,1334,394,1380Zm30.3-13-2.1-.9-.8.8c-3.4-2.5-.9-8.1,3-9,1.4,2.4-.7,5.3,1.4,7.5Zm10.7-14h8v11h-8Zm0,43v-14h7.7c1,3.9-.9,8.2,1.5,12.3C442.3,1397.3,438.3,1395.6,435,1396Zm15-30.3c-2.3.5-4.2,2.5-6,0,.7-4.3-1.6-9.8,1.4-12.8l4.6,2Zm5.4,1.3c-1.4-.3-3.1.7-4.1-1.5,1.4-2.4.2-5.5.9-8.7l4.8,3.4C456.5,1362.4,457.9,1364.8,455.4,1367Zm15.6-50.1c-2,.3-3.8.5-5-1.4l1.7-3.6,3.3,1Zm37,8.4v5.7h-2.5C503.7,1328.4,503.9,1324.3,508,1325.3Zm-5,11.9v5.6l-1.8,1.5-1.9-1.6C501.4,1340.1,496.5,1337.3,503,1337.2Zm12.2,58.8H498c-1.5-8.9,2.1-16.1,12.4-14C517,1384.1,514.8,1390.5,515.2,1396Zm20.8-30.9V1376H519v-11Zm16-17.1c-8.2,1.5-7.2-3-7-9.7C552.4,1332.9,552.5,1342.3,552,1348Zm48-16.4a3.6,3.6,0,0,1-5.9.1c.9-1,1.6-2.1-.4-3.3a16.8,16.8,0,0,1,6.3-.1Zm36.2,68.3a14.2,14.2,0,0,1-.7-2.2l-.5.7c.5-10.9-1.1-31.2.7-43.3a26.3,26.3,0,0,0-3.3,2.9c-4.9-1.5-25.3,3.9-23.2-4h12.3l1.3-3.9c-4-1.7-9.4,1.4-13.7-1.5-.4-10.6-5.8-20.7-5.1-31.6,7.5,2.1,13.7,12.4,20.1,17.5l4-4c-4-4.5-10.2-7.4-13.5-13.6,4.1,1,4.1,1,16.4,13.5-.2,3.3-4.1,5-5.7,7.5-7.6-3.4-11.6-11.1-18.4-16.6-1.4,9.7,4.7,16.7,5.1,25.7,7.7.9,19-3.8,12,8h7.6l.3-3h4.5C637.5,1367.6,636.4,1383.7,636.2,1399.9ZM653.5,1269H658c1.7,6.3,6.2,25.2-4.9,22C650.2,1285.4,651.3,1276,653.5,1269ZM666,1387c-6.5-.9-14.5,2-19.9-1.4.7-12.5-3.8-28,8.7-36.5C672.2,1352,664.3,1374.3,666,1387Zm65-37c-3.5-.6-7.5,1.4-9.9-1.4.1-5.9-1.5-13.6,4.4-17.6C734.5,1331.7,730,1343.9,731,1350Z" transform="translate(375 -1230.3)"/>
  <line class="cls-1" x1="899.5" y1="145.7" x2="899.5" y2="134.7"/>
  <line class="cls-1" x1="907.5" y1="134.7" x2="907.5" y2="145.7"/>
</svg>
