<svg id="Layer_1" data-name="Layer 1" xmlns="http://www.w3.org/2000/svg" viewBox="0 0 360 361.74"><defs><style>.cls-1{fill:#fff;fill-rule:evenodd;}</style></defs><path class="cls-1" d="M307.55,52.57A178,178,0,0,0,180.76,0C82,0,1.54,80.4,1.5,179.24a179,179,0,0,0,23.93,89.6L0,361.74l95-24.93a178.86,178.86,0,0,0,85.66,21.81h.08c98.78,0,179.21-80.41,179.24-179.24A178.16,178.16,0,0,0,307.55,52.57ZM180.76,328.35h-.06a148.76,148.76,0,0,1-75.84-20.76l-5.44-3.23L43,319.15l15-55-3.54-5.64a148.59,148.59,0,0,1-22.77-79.29c0-82.14,66.86-149,149-149A149,149,0,0,1,329.74,179.36c0,82.15-66.87,149-149,149Zm81.72-111.57c-4.48-2.25-26.5-13.08-30.61-14.57s-7.09-2.24-10.07,2.24S210.23,219,207.62,222s-5.23,3.36-9.71,1.12-18.91-7-36-22.23c-13.31-11.88-22.3-26.54-24.91-31s-.28-6.92,2-9.14c2-2,4.48-5.23,6.72-7.85s3-4.48,4.48-7.47.75-5.6-.37-7.84S139.69,113.29,136,104.32c-3.63-8.73-7.33-7.54-10.07-7.69s-5.6-.15-8.59-.15a16.4,16.4,0,0,0-11.94,5.6c-4.11,4.49-15.68,15.32-15.68,37.36s16,43.35,18.29,46.34,31.58,48.22,76.51,67.63A260.34,260.34,0,0,0,210,262.85a61.27,61.27,0,0,0,28.21,1.77c8.61-1.29,26.5-10.83,30.23-21.29s3.73-19.44,2.61-21.3-4.1-3-8.58-5.24Z"/></svg>