<svg xmlns="http://www.w3.org/2000/svg" viewBox="0 0 383.07 383.4"><defs><style>.cls-1{fill:#020202;}.cls-2{fill:#f24336;}</style></defs><g id="Layer_2" data-name="Layer 2"><g id="Layer_1-2" data-name="Layer 1"><path class="cls-1" d="M0,40.7c3.43-6.92,9.11-8.89,16.56-8.53A313.42,313.42,0,0,0,48,32.31c23.54-1.27,44.49,13.44,48.6,40,1,6.51,2.84,12.89,3.9,19.39.56,3.45,1.79,4.58,5.44,4.5,12.59-.29,25.19-.18,37.78-.08a12,12,0,0,1,2.88,23.62,16.8,16.8,0,0,1-4.08.35c-10.72,0-21.44.08-32.17,0-2.62,0-3.58.07-2.88,3.35q12.74,59.55,25,119.19c.81,4,2.2,5.21,6.39,5.2q93.33-.24,186.67-.06c2.72,0,4.07-.33,4.7-3.53,3.48-17.7,7.33-35.32,11-53,1.88-9,9-13.52,16.55-10.55,5.75,2.26,8.62,7.92,7.23,14.7-2.5,12.19-5.13,24.36-7.71,36.53-2.09,9.86-4.13,19.73-6.3,29.57-1.45,6.57-5.68,10-12.39,10.24-1.12.05-2.25,0-3.37,0H131.75c-10.1,0-20.21.27-30.29-.08-9.34-.33-13.69,6.46-13.69,12.07,0,7,5.71,11.94,13.87,11.94H336.57a19.66,19.66,0,0,1,6.3.52,11.91,11.91,0,0,1,8.2,12,11.63,11.63,0,0,1-9.11,10.9,20.67,20.67,0,0,1-4.44.47q-118.21,0-236.43,0c-20.29,0-35.24-13.67-37.13-33.52-1.8-19,13.9-37.19,33-38.15,3-.15,6-.23,9-.1,2.13.08,2.92-.44,2.44-2.72Q98.17,197,88,148.78q-7.78-37-15.46-74C70,62.3,63,56.4,50.21,56.36c-10.72,0-21.45-.34-32.16,0-7.57.24-14-1-18-8.19Z"/><path class="cls-1" d="M162.37,383.4c-.7-1.26-2.11-1.1-3.2-1.51-10.46-4-17.08-15.15-15.28-25.89,2-11.76,11.58-20.27,23.15-20.48a23.95,23.95,0,0,1,9.68,46.06c-1.74.71-3.58,1.22-5.37,1.82Z"/><path class="cls-1" d="M290.32,383.4c-.46-1.18-1.69-.91-2.54-1.22-11.68-4.21-18.4-15.69-16-27.46a24.14,24.14,0,0,1,25.35-19.16c11.87.82,21.27,10.53,22.09,22.83a23.6,23.6,0,0,1-18.91,24.26c-.5.09-1,.11-1,.75Z"/><path class="cls-1" d="M175.55,59.71C176.82,34.34,188.41,15.33,212,5.3s45.58-5.57,64.77,11.54c2,1.81,2.95,2.18,5.13.08A59.8,59.8,0,0,1,383,63c-.79,15-6.84,28.41-14.42,41.14-12.8,21.53-29.74,39.59-47.85,56.63a415.17,415.17,0,0,1-32.22,27.3c-6.77,5.19-11.45,5.25-18.17,0-26.13-20.21-50.36-42.38-70.21-69C189.56,105,180.79,89.91,177,72.4A63.08,63.08,0,0,1,175.55,59.71Zm23.93-.12c.24,2.35.32,4.73.74,7,2.22,12.17,8.19,22.65,15.18,32.57,17.3,24.56,38.95,44.94,62,64,1.88,1.55,2.9.81,4.39-.4A378.51,378.51,0,0,0,329.44,117c10.36-12,19.92-24.61,25.89-39.5,3.4-8.47,5.09-17.17,2.7-26.28a35.93,35.93,0,0,0-66.88-7.29c-3.31,6.49-7.1,8.74-13.6,8.08-5.19-.53-7.95-3.83-10.18-8.23a35.93,35.93,0,0,0-67.89,15.8Z"/><path class="cls-2" d="M199.48,59.59a35.93,35.93,0,0,1,67.89-15.8c2.23,4.4,5,7.7,10.18,8.23,6.5.66,10.29-1.59,13.6-8.08A35.93,35.93,0,0,1,358,51.23c2.39,9.11.7,17.81-2.7,26.28-6,14.89-15.53,27.5-25.89,39.5a378.51,378.51,0,0,1-47.67,45.78c-1.49,1.21-2.51,2-4.39.4-23-19-44.68-39.42-62-64-7-9.92-13-20.4-15.18-32.57C199.8,64.32,199.72,61.94,199.48,59.59Z"/></g></g></svg>