<?xml version="1.0" encoding="UTF-8"?>
<!DOCTYPE svg
PUBLIC "-//W3C//DTD SVG 1.1//EN"
       "http://www.w3.org/Graphics/SVG/1.1/DTD/svg11.dtd">
<svg viewBox="65 5 952 765" width="887px" height="760px" xmlns="http://www.w3.org/2000/svg" version="1.1">
   <line x1="360" y1="180" x2="350" y2="180" style="stroke:#333;stroke-width:1;"/>
   <line x1="187" y1="270" x2="177" y2="270" style="stroke:#333;stroke-width:1;"/>
   <line x1="350" y1="180" x2="187" y2="270" style="stroke:#333;stroke-width:1;"/>
   <line x1="352.5" y1="180" x2="356.03553390593" y2="183.53553390593" style="stroke:#333;stroke-width:2;"/>
   <line x1="352.5" y1="180" x2="356.03553390593" y2="176.46446609407" style="stroke:#333;stroke-width:2;"/>
   <line x1="182" y1="270" x2="185.53553390593" y2="273.53553390593" style="stroke:#333;stroke-width:2;"/>
   <line x1="182" y1="270" x2="185.53553390593" y2="266.46446609407" style="stroke:#333;stroke-width:2;"/>
   <line x1="360" y1="200" x2="350" y2="200" style="stroke:#bbb;stroke-width:1;"/>
   <line x1="216" y1="50" x2="206" y2="50" style="stroke:#bbb;stroke-width:1;"/>
   <line x1="350" y1="200" x2="216" y2="50" style="stroke:#bbb;stroke-width:1;"/>
   <line x1="352.5" y1="200" x2="356.03553390593" y2="203.53553390593" style="stroke:#bbb;stroke-width:2;"/>
   <line x1="352.5" y1="200" x2="356.03553390593" y2="196.46446609407" style="stroke:#bbb;stroke-width:2;"/>
   <line x1="211" y1="50" x2="214.53553390593" y2="53.535533905933" style="stroke:#bbb;stroke-width:2;"/>
   <line x1="211" y1="50" x2="214.53553390593" y2="46.464466094067" style="stroke:#bbb;stroke-width:2;"/>
   <line x1="541" y1="440" x2="551" y2="440" style="stroke:#c00;stroke-width:1;"/>
   <line x1="800" y1="580" x2="810" y2="580" style="stroke:#c00;stroke-width:1;"/>
   <line x1="551" y1="440" x2="800" y2="580" style="stroke:#c00;stroke-width:1;"/>
   <line x1="548.5" y1="440" x2="544.96446609407" y2="443.53553390593" style="stroke:#c00;stroke-width:2;"/>
   <line x1="548.5" y1="440" x2="544.96446609407" y2="436.46446609407" style="stroke:#c00;stroke-width:2;"/>
   <line x1="805" y1="580" x2="801.46446609407" y2="583.53553390593" style="stroke:#c00;stroke-width:2;"/>
   <line x1="805" y1="580" x2="801.46446609407" y2="576.46446609407" style="stroke:#c00;stroke-width:2;"/>
   <line x1="440" y1="460" x2="430" y2="460" style="stroke:#333;stroke-width:1;"/>
   <line x1="430" y1="600" x2="440" y2="600" style="stroke:#333;stroke-width:1;"/>
   <line x1="430" y1="460" x2="430" y2="600" style="stroke:#333;stroke-width:1;"/>
   <line x1="432.5" y1="460" x2="436.03553390593" y2="463.53553390593" style="stroke:#333;stroke-width:2;"/>
   <line x1="432.5" y1="460" x2="436.03553390593" y2="456.46446609407" style="stroke:#333;stroke-width:2;"/>
   <line x1="435" y1="600" x2="431.46446609407" y2="603.53553390593" style="stroke:#333;stroke-width:2;"/>
   <line x1="435" y1="600" x2="431.46446609407" y2="596.46446609407" style="stroke:#333;stroke-width:2;"/>
   <line x1="360" y1="70" x2="350" y2="70" style="stroke:#0bf;stroke-width:1;"/>
   <line x1="187" y1="270" x2="177" y2="270" style="stroke:#0bf;stroke-width:1;"/>
   <line x1="350" y1="70" x2="187" y2="270" style="stroke:#0bf;stroke-width:1;"/>
   <line x1="352.5" y1="70" x2="356.03553390593" y2="73.535533905933" style="stroke:#0bf;stroke-width:2;"/>
   <line x1="352.5" y1="70" x2="356.03553390593" y2="66.464466094067" style="stroke:#0bf;stroke-width:2;"/>
   <line x1="182" y1="270" x2="185.53553390593" y2="273.53553390593" style="stroke:#0bf;stroke-width:2;"/>
   <line x1="182" y1="270" x2="185.53553390593" y2="266.46446609407" style="stroke:#0bf;stroke-width:2;"/>
   <line x1="360" y1="90" x2="350" y2="90" style="stroke:#0b0;stroke-width:1;"/>
   <line x1="216" y1="50" x2="206" y2="50" style="stroke:#0b0;stroke-width:1;"/>
   <line x1="350" y1="90" x2="216" y2="50" style="stroke:#0b0;stroke-width:1;"/>
   <line x1="352.5" y1="90" x2="356.03553390593" y2="93.535533905933" style="stroke:#0b0;stroke-width:2;"/>
   <line x1="352.5" y1="90" x2="356.03553390593" y2="86.464466094067" style="stroke:#0b0;stroke-width:2;"/>
   <line x1="211" y1="50" x2="214.53553390593" y2="53.535533905933" style="stroke:#0b0;stroke-width:2;"/>
   <line x1="211" y1="50" x2="214.53553390593" y2="46.464466094067" style="stroke:#0b0;stroke-width:2;"/>
   <line x1="810" y1="600" x2="800" y2="600" style="stroke:#0b0;stroke-width:1;"/>
   <line x1="553" y1="600" x2="543" y2="600" style="stroke:#0b0;stroke-width:1;"/>
   <line x1="800" y1="600" x2="553" y2="600" style="stroke:#0b0;stroke-width:1;"/>
   <line x1="802.5" y1="600" x2="806.03553390593" y2="603.53553390593" style="stroke:#0b0;stroke-width:2;"/>
   <line x1="802.5" y1="600" x2="806.03553390593" y2="596.46446609407" style="stroke:#0b0;stroke-width:2;"/>
   <line x1="548" y1="600" x2="551.53553390593" y2="603.53553390593" style="stroke:#0b0;stroke-width:2;"/>
   <line x1="548" y1="600" x2="551.53553390593" y2="596.46446609407" style="stroke:#0b0;stroke-width:2;"/>
   <line x1="810" y1="420" x2="800" y2="420" style="stroke:#c00;stroke-width:1;"/>
   <line x1="553" y1="600" x2="543" y2="600" style="stroke:#c00;stroke-width:1;"/>
   <line x1="800" y1="420" x2="553" y2="600" style="stroke:#c00;stroke-width:1;"/>
   <line x1="802.5" y1="420" x2="806.03553390593" y2="423.53553390593" style="stroke:#c00;stroke-width:2;"/>
   <line x1="802.5" y1="420" x2="806.03553390593" y2="416.46446609407" style="stroke:#c00;stroke-width:2;"/>
   <line x1="548" y1="600" x2="551.53553390593" y2="603.53553390593" style="stroke:#c00;stroke-width:2;"/>
   <line x1="548" y1="600" x2="551.53553390593" y2="596.46446609407" style="stroke:#c00;stroke-width:2;"/>
   <line x1="810" y1="400" x2="800" y2="400" style="stroke:#0bf;stroke-width:1;"/>
   <line x1="800" y1="580" x2="810" y2="580" style="stroke:#0bf;stroke-width:1;"/>
   <line x1="800" y1="400" x2="800" y2="580" style="stroke:#0bf;stroke-width:1;"/>
   <line x1="802.5" y1="400" x2="806.03553390593" y2="403.53553390593" style="stroke:#0bf;stroke-width:2;"/>
   <line x1="802.5" y1="400" x2="806.03553390593" y2="396.46446609407" style="stroke:#0bf;stroke-width:2;"/>
   <line x1="805" y1="580" x2="801.46446609407" y2="583.53553390593" style="stroke:#0bf;stroke-width:2;"/>
   <line x1="805" y1="580" x2="801.46446609407" y2="576.46446609407" style="stroke:#0bf;stroke-width:2;"/>
   <line x1="190" y1="530" x2="200" y2="530" style="stroke:#0b0;stroke-width:1;"/>
   <line x1="430" y1="600" x2="440" y2="600" style="stroke:#0b0;stroke-width:1;"/>
   <line x1="200" y1="530" x2="430" y2="600" style="stroke:#0b0;stroke-width:1;"/>
   <line x1="197.5" y1="530" x2="193.96446609407" y2="533.53553390593" style="stroke:#0b0;stroke-width:2;"/>
   <line x1="197.5" y1="530" x2="193.96446609407" y2="526.46446609407" style="stroke:#0b0;stroke-width:2;"/>
   <line x1="435" y1="600" x2="431.46446609407" y2="603.53553390593" style="stroke:#0b0;stroke-width:2;"/>
   <line x1="435" y1="600" x2="431.46446609407" y2="596.46446609407" style="stroke:#0b0;stroke-width:2;"/>
   <line x1="360" y1="290" x2="350" y2="290" style="stroke:#333;stroke-width:1;"/>
   <line x1="200" y1="510" x2="190" y2="510" style="stroke:#333;stroke-width:1;"/>
   <line x1="350" y1="290" x2="200" y2="510" style="stroke:#333;stroke-width:1;"/>
   <line x1="352.5" y1="290" x2="356.03553390593" y2="293.53553390593" style="stroke:#333;stroke-width:2;"/>
   <line x1="352.5" y1="290" x2="356.03553390593" y2="286.46446609407" style="stroke:#333;stroke-width:2;"/>
   <line x1="195" y1="510" x2="198.53553390593" y2="513.53553390593" style="stroke:#333;stroke-width:2;"/>
   <line x1="195" y1="510" x2="198.53553390593" y2="506.46446609407" style="stroke:#333;stroke-width:2;"/>
   <line x1="360" y1="310" x2="350" y2="310" style="stroke:#333;stroke-width:1;"/>
   <line x1="216" y1="50" x2="206" y2="50" style="stroke:#333;stroke-width:1;"/>
   <line x1="350" y1="310" x2="216" y2="50" style="stroke:#333;stroke-width:1;"/>
   <line x1="352.5" y1="310" x2="356.03553390593" y2="313.53553390593" style="stroke:#333;stroke-width:2;"/>
   <line x1="352.5" y1="310" x2="356.03553390593" y2="306.46446609407" style="stroke:#333;stroke-width:2;"/>
   <line x1="211" y1="50" x2="214.53553390593" y2="53.535533905933" style="stroke:#333;stroke-width:2;"/>
   <line x1="211" y1="50" x2="214.53553390593" y2="46.464466094067" style="stroke:#333;stroke-width:2;"/>
   <line x1="570" y1="160" x2="560" y2="160" style="stroke:#c00;stroke-width:1;"/>
   <line x1="216" y1="50" x2="206" y2="50" style="stroke:#c00;stroke-width:1;"/>
   <line x1="560" y1="160" x2="216" y2="50" style="stroke:#c00;stroke-width:1;"/>
   <line x1="562.5" y1="160" x2="566.03553390593" y2="163.53553390593" style="stroke:#c00;stroke-width:2;"/>
   <line x1="562.5" y1="160" x2="566.03553390593" y2="156.46446609407" style="stroke:#c00;stroke-width:2;"/>
   <line x1="211" y1="50" x2="214.53553390593" y2="53.535533905933" style="stroke:#c00;stroke-width:2;"/>
   <line x1="211" y1="50" x2="214.53553390593" y2="46.464466094067" style="stroke:#c00;stroke-width:2;"/>
   <line x1="80" y1="640" x2="70" y2="640" style="stroke:#cb0;stroke-width:1;"/>
   <line x1="70" y1="50" x2="80" y2="50" style="stroke:#cb0;stroke-width:1;"/>
   <line x1="70" y1="640" x2="70" y2="50" style="stroke:#cb0;stroke-width:1;"/>
   <line x1="72.5" y1="640" x2="76.035533905933" y2="643.53553390593" style="stroke:#cb0;stroke-width:2;"/>
   <line x1="72.5" y1="640" x2="76.035533905933" y2="636.46446609407" style="stroke:#cb0;stroke-width:2;"/>
   <line x1="75" y1="50" x2="71.464466094067" y2="53.535533905933" style="stroke:#cb0;stroke-width:2;"/>
   <line x1="75" y1="50" x2="71.464466094067" y2="46.464466094067" style="stroke:#cb0;stroke-width:2;"/>
   <line x1="182" y1="660" x2="192" y2="660" style="stroke:#333;stroke-width:1;"/>
   <line x1="430" y1="600" x2="440" y2="600" style="stroke:#333;stroke-width:1;"/>
   <line x1="192" y1="660" x2="430" y2="600" style="stroke:#333;stroke-width:1;"/>
   <line x1="189.5" y1="660" x2="185.96446609407" y2="663.53553390593" style="stroke:#333;stroke-width:2;"/>
   <line x1="189.5" y1="660" x2="185.96446609407" y2="656.46446609407" style="stroke:#333;stroke-width:2;"/>
   <line x1="435" y1="600" x2="431.46446609407" y2="603.53553390593" style="stroke:#333;stroke-width:2;"/>
   <line x1="435" y1="600" x2="431.46446609407" y2="596.46446609407" style="stroke:#333;stroke-width:2;"/>
   <line x1="570" y1="50" x2="560" y2="50" style="stroke:#0bf;stroke-width:1;"/>
   <line x1="216" y1="50" x2="206" y2="50" style="stroke:#0bf;stroke-width:1;"/>
   <line x1="560" y1="50" x2="216" y2="50" style="stroke:#0bf;stroke-width:1;"/>
   <line x1="562.5" y1="50" x2="566.03553390593" y2="53.535533905933" style="stroke:#0bf;stroke-width:2;"/>
   <line x1="562.5" y1="50" x2="566.03553390593" y2="46.464466094067" style="stroke:#0bf;stroke-width:2;"/>
   <line x1="211" y1="50" x2="214.53553390593" y2="53.535533905933" style="stroke:#0bf;stroke-width:2;"/>
   <line x1="211" y1="50" x2="214.53553390593" y2="46.464466094067" style="stroke:#0bf;stroke-width:2;"/>
   <rect width="97" height="20" x="80" y="240" style="fill:#007;stroke:black;"/>
   <text width="97" height="20" x="85" y="254" style="fill:#fff;" font-family="Arial" font-size="16px"> Artists</text>
   <rect width="97" height="20" x="80" y="260" style="fill:#aea;stroke:black;"/>
   <text width="97" height="20" x="85" y="274" style="fill:black;" font-family="Arial" font-size="16px">ArtistID</text>
   <rect width="97" height="20" x="80" y="280" style="fill:none;stroke:black;"/>
   <text width="97" height="20" x="85" y="294" style="fill:black;" font-family="Arial" font-size="16px">Name</text>
   <rect width="97" height="20" x="80" y="300" style="fill:none;stroke:black;"/>
   <text width="97" height="20" x="85" y="314" style="fill:black;" font-family="Arial" font-size="16px">About</text>
   <rect width="97" height="20" x="80" y="320" style="fill:none;stroke:black;"/>
   <text width="97" height="20" x="85" y="334" style="fill:black;" font-family="Arial" font-size="16px">KnownFor</text>
   <rect width="97" height="20" x="80" y="340" style="fill:none;stroke:black;"/>
   <text width="97" height="20" x="85" y="354" style="fill:black;" font-family="Arial" font-size="16px">Song1Link</text>
   <rect width="97" height="20" x="80" y="360" style="fill:none;stroke:black;"/>
   <text width="97" height="20" x="85" y="374" style="fill:black;" font-family="Arial" font-size="16px">Song2Link</text>
   <rect width="97" height="20" x="80" y="380" style="fill:none;stroke:black;"/>
   <text width="97" height="20" x="85" y="394" style="fill:black;" font-family="Arial" font-size="16px">Song3Link</text>
   <rect width="97" height="20" x="80" y="400" style="fill:none;stroke:black;"/>
   <text width="97" height="20" x="85" y="414" style="fill:black;" font-family="Arial" font-size="16px">ImageName</text>
   <rect width="97" height="20" x="80" y="420" style="fill:none;stroke:black;"/>
   <text width="97" height="20" x="85" y="434" style="fill:black;" font-family="Arial" font-size="16px">Category</text>
   <rect width="67" height="20" x="360" y="150" style="fill:#007;stroke:black;"/>
   <text width="67" height="20" x="365" y="164" style="fill:#fff;" font-family="Arial" font-size="16px"> Dance</text>
   <rect width="67" height="20" x="360" y="170" style="fill:none;stroke:black;"/>
   <text width="67" height="20" x="365" y="184" style="fill:black;" font-family="Arial" font-size="16px">ArtistID</text>
   <rect width="67" height="20" x="360" y="190" style="fill:none;stroke:black;"/>
   <text width="67" height="20" x="365" y="204" style="fill:black;" font-family="Arial" font-size="16px">EventID</text>
   <rect width="126" height="20" x="80" y="20" style="fill:#007;stroke:black;"/>
   <text width="126" height="20" x="85" y="34" style="fill:#fff;" font-family="Arial" font-size="16px"> Events</text>
   <rect width="126" height="20" x="80" y="40" style="fill:#aea;stroke:black;"/>
   <text width="126" height="20" x="85" y="54" style="fill:black;" font-family="Arial" font-size="16px">EventID</text>
   <rect width="126" height="20" x="80" y="60" style="fill:none;stroke:black;"/>
   <text width="126" height="20" x="85" y="74" style="fill:black;" font-family="Arial" font-size="16px">Name</text>
   <rect width="126" height="20" x="80" y="80" style="fill:none;stroke:black;"/>
   <text width="126" height="20" x="85" y="94" style="fill:black;" font-family="Arial" font-size="16px">Description</text>
   <rect width="126" height="20" x="80" y="100" style="fill:none;stroke:black;"/>
   <text width="126" height="20" x="85" y="114" style="fill:black;" font-family="Arial" font-size="16px">Date</text>
   <rect width="126" height="20" x="80" y="120" style="fill:none;stroke:black;"/>
   <text width="126" height="20" x="85" y="134" style="fill:black;" font-family="Arial" font-size="16px">Time</text>
   <rect width="126" height="20" x="80" y="140" style="fill:none;stroke:black;"/>
   <text width="126" height="20" x="85" y="154" style="fill:black;" font-family="Arial" font-size="16px">Location</text>
   <rect width="126" height="20" x="80" y="160" style="fill:none;stroke:black;"/>
   <text width="126" height="20" x="85" y="174" style="fill:black;" font-family="Arial" font-size="16px">Price</text>
   <rect width="126" height="20" x="80" y="180" style="fill:none;stroke:black;"/>
   <text width="126" height="20" x="85" y="194" style="fill:black;" font-family="Arial" font-size="16px">AvailableTickets</text>
   <rect width="101" height="20" x="440" y="390" style="fill:#007;stroke:black;"/>
   <text width="101" height="20" x="445" y="404" style="fill:#fff;" font-family="Arial" font-size="16px"> Invoices</text>
   <rect width="101" height="20" x="440" y="410" style="fill:#aea;stroke:black;"/>
   <text width="101" height="20" x="445" y="424" style="fill:black;" font-family="Arial" font-size="16px">InvoiceID</text>
   <rect width="101" height="20" x="440" y="430" style="fill:none;stroke:black;"/>
   <text width="101" height="20" x="445" y="444" style="fill:black;" font-family="Arial" font-size="16px">OrderID</text>
   <rect width="101" height="20" x="440" y="450" style="fill:none;stroke:black;"/>
   <text width="101" height="20" x="445" y="464" style="fill:black;" font-family="Arial" font-size="16px">UserID</text>
   <rect width="101" height="20" x="440" y="470" style="fill:none;stroke:black;"/>
   <text width="101" height="20" x="445" y="484" style="fill:black;" font-family="Arial" font-size="16px">TotalAmount</text>
   <rect width="101" height="20" x="440" y="490" style="fill:none;stroke:black;"/>
   <text width="101" height="20" x="445" y="504" style="fill:black;" font-family="Arial" font-size="16px">VAT</text>
   <rect width="101" height="20" x="440" y="510" style="fill:none;stroke:black;"/>
   <text width="101" height="20" x="445" y="524" style="fill:black;" font-family="Arial" font-size="16px">InvoiceDate</text>
   <rect width="67" height="20" x="360" y="40" style="fill:#007;stroke:black;"/>
   <text width="67" height="20" x="365" y="54" style="fill:#fff;" font-family="Arial" font-size="16px"> Jazz</text>
   <rect width="67" height="20" x="360" y="60" style="fill:none;stroke:black;"/>
   <text width="67" height="20" x="365" y="74" style="fill:black;" font-family="Arial" font-size="16px">ArtistID</text>
   <rect width="67" height="20" x="360" y="80" style="fill:none;stroke:black;"/>
   <text width="67" height="20" x="365" y="94" style="fill:black;" font-family="Arial" font-size="16px">EventID</text>
   <rect width="127" height="20" x="810" y="550" style="fill:#007;stroke:black;"/>
   <text width="127" height="20" x="815" y="564" style="fill:#fff;" font-family="Arial" font-size="16px"> Orders</text>
   <rect width="127" height="20" x="810" y="570" style="fill:#aea;stroke:black;"/>
   <text width="127" height="20" x="815" y="584" style="fill:black;" font-family="Arial" font-size="16px">OrderID</text>
   <rect width="127" height="20" x="810" y="590" style="fill:none;stroke:black;"/>
   <text width="127" height="20" x="815" y="604" style="fill:black;" font-family="Arial" font-size="16px">UserID</text>
   <rect width="127" height="20" x="810" y="610" style="fill:none;stroke:black;"/>
   <text width="127" height="20" x="815" y="624" style="fill:black;" font-family="Arial" font-size="16px">Status</text>
   <rect width="127" height="20" x="810" y="630" style="fill:none;stroke:black;"/>
   <text width="127" height="20" x="815" y="644" style="fill:black;" font-family="Arial" font-size="16px">CreatedAt</text>
   <rect width="127" height="20" x="810" y="650" style="fill:none;stroke:black;"/>
   <text width="127" height="20" x="815" y="664" style="fill:black;" font-family="Arial" font-size="16px">PaymentMethod</text>
   <rect width="127" height="20" x="810" y="350" style="fill:#007;stroke:black;"/>
   <text width="127" height="20" x="815" y="364" style="fill:#fff;" font-family="Arial" font-size="16px"> Payments</text>
   <rect width="127" height="20" x="810" y="370" style="fill:#aea;stroke:black;"/>
   <text width="127" height="20" x="815" y="384" style="fill:black;" font-family="Arial" font-size="16px">PaymentID</text>
   <rect width="127" height="20" x="810" y="390" style="fill:none;stroke:black;"/>
   <text width="127" height="20" x="815" y="404" style="fill:black;" font-family="Arial" font-size="16px">OrderID</text>
   <rect width="127" height="20" x="810" y="410" style="fill:none;stroke:black;"/>
   <text width="127" height="20" x="815" y="424" style="fill:black;" font-family="Arial" font-size="16px">UserID</text>
   <rect width="127" height="20" x="810" y="430" style="fill:none;stroke:black;"/>
   <text width="127" height="20" x="815" y="444" style="fill:black;" font-family="Arial" font-size="16px">Status</text>
   <rect width="127" height="20" x="810" y="450" style="fill:none;stroke:black;"/>
   <text width="127" height="20" x="815" y="464" style="fill:black;" font-family="Arial" font-size="16px">PaymentDate</text>
   <rect width="127" height="20" x="810" y="470" style="fill:none;stroke:black;"/>
   <text width="127" height="20" x="815" y="484" style="fill:black;" font-family="Arial" font-size="16px">Amount</text>
   <rect width="127" height="20" x="810" y="490" style="fill:none;stroke:black;"/>
   <text width="127" height="20" x="815" y="504" style="fill:black;" font-family="Arial" font-size="16px">PaymentMethod</text>
   <rect width="110" height="20" x="80" y="480" style="fill:#007;stroke:black;"/>
   <text width="110" height="20" x="85" y="494" style="fill:#fff;" font-family="Arial" font-size="16px"> ShoppingCart</text>
   <rect width="110" height="20" x="80" y="500" style="fill:#aea;stroke:black;"/>
   <text width="110" height="20" x="85" y="514" style="fill:black;" font-family="Arial" font-size="16px">CartID</text>
   <rect width="110" height="20" x="80" y="520" style="fill:none;stroke:black;"/>
   <text width="110" height="20" x="85" y="534" style="fill:black;" font-family="Arial" font-size="16px">UserID</text>
   <rect width="110" height="20" x="80" y="540" style="fill:none;stroke:black;"/>
   <text width="110" height="20" x="85" y="554" style="fill:black;" font-family="Arial" font-size="16px">CreatedAt</text>
   <rect width="148" height="20" x="360" y="240" style="fill:#007;stroke:black;"/>
   <text width="148" height="20" x="365" y="254" style="fill:#fff;" font-family="Arial" font-size="16px"> ShoppingCartItems</text>
   <rect width="148" height="20" x="360" y="260" style="fill:#aea;stroke:black;"/>
   <text width="148" height="20" x="365" y="274" style="fill:black;" font-family="Arial" font-size="16px">ItemID</text>
   <rect width="148" height="20" x="360" y="280" style="fill:none;stroke:black;"/>
   <text width="148" height="20" x="365" y="294" style="fill:black;" font-family="Arial" font-size="16px">CartID</text>
   <rect width="148" height="20" x="360" y="300" style="fill:none;stroke:black;"/>
   <text width="148" height="20" x="365" y="314" style="fill:black;" font-family="Arial" font-size="16px">EventID</text>
   <rect width="148" height="20" x="360" y="320" style="fill:none;stroke:black;"/>
   <text width="148" height="20" x="365" y="334" style="fill:black;" font-family="Arial" font-size="16px">Quantity</text>
   <rect width="148" height="20" x="360" y="340" style="fill:none;stroke:black;"/>
   <text width="148" height="20" x="365" y="354" style="fill:black;" font-family="Arial" font-size="16px">AddedAt</text>
   <rect width="81" height="20" x="570" y="130" style="fill:#007;stroke:black;"/>
   <text width="81" height="20" x="575" y="144" style="fill:#fff;" font-family="Arial" font-size="16px"> Stroll</text>
   <rect width="81" height="20" x="570" y="150" style="fill:none;stroke:black;"/>
   <text width="81" height="20" x="575" y="164" style="fill:black;" font-family="Arial" font-size="16px">EventID</text>
   <rect width="81" height="20" x="570" y="170" style="fill:none;stroke:black;"/>
   <text width="81" height="20" x="575" y="184" style="fill:black;" font-family="Arial" font-size="16px">Language</text>
   <rect width="81" height="20" x="570" y="190" style="fill:none;stroke:black;"/>
   <text width="81" height="20" x="575" y="204" style="fill:black;" font-family="Arial" font-size="16px">Guide</text>
   <rect width="102" height="20" x="80" y="590" style="fill:#007;stroke:black;"/>
   <text width="102" height="20" x="85" y="604" style="fill:#fff;" font-family="Arial" font-size="16px"> Tickets</text>
   <rect width="102" height="20" x="80" y="610" style="fill:#aea;stroke:black;"/>
   <text width="102" height="20" x="85" y="624" style="fill:black;" font-family="Arial" font-size="16px">TicketID</text>
   <rect width="102" height="20" x="80" y="630" style="fill:none;stroke:black;"/>
   <text width="102" height="20" x="85" y="644" style="fill:black;" font-family="Arial" font-size="16px">EventID</text>
   <rect width="102" height="20" x="80" y="650" style="fill:none;stroke:black;"/>
   <text width="102" height="20" x="85" y="664" style="fill:black;" font-family="Arial" font-size="16px">UserID</text>
   <rect width="102" height="20" x="80" y="670" style="fill:none;stroke:black;"/>
   <text width="102" height="20" x="85" y="684" style="fill:black;" font-family="Arial" font-size="16px">QRCode</text>
   <rect width="102" height="20" x="80" y="690" style="fill:none;stroke:black;"/>
   <text width="102" height="20" x="85" y="704" style="fill:black;" font-family="Arial" font-size="16px">Status</text>
   <rect width="102" height="20" x="80" y="710" style="fill:none;stroke:black;"/>
   <text width="102" height="20" x="85" y="724" style="fill:black;" font-family="Arial" font-size="16px">PurchasedAt</text>
   <rect width="103" height="20" x="440" y="570" style="fill:#007;stroke:black;"/>
   <text width="103" height="20" x="445" y="584" style="fill:#fff;" font-family="Arial" font-size="16px"> Users</text>
   <rect width="103" height="20" x="440" y="590" style="fill:#aea;stroke:black;"/>
   <text width="103" height="20" x="445" y="604" style="fill:black;" font-family="Arial" font-size="16px">UserID</text>
   <rect width="103" height="20" x="440" y="610" style="fill:none;stroke:black;"/>
   <text width="103" height="20" x="445" y="624" style="fill:black;" font-family="Arial" font-size="16px">Role</text>
   <rect width="103" height="20" x="440" y="630" style="fill:none;stroke:black;"/>
   <text width="103" height="20" x="445" y="644" style="fill:black;" font-family="Arial" font-size="16px">Name</text>
   <rect width="103" height="20" x="440" y="650" style="fill:none;stroke:black;"/>
   <text width="103" height="20" x="445" y="664" style="fill:black;" font-family="Arial" font-size="16px">Email</text>
   <rect width="103" height="20" x="440" y="670" style="fill:none;stroke:black;"/>
   <text width="103" height="20" x="445" y="684" style="fill:black;" font-family="Arial" font-size="16px">Password</text>
   <rect width="103" height="20" x="440" y="690" style="fill:none;stroke:black;"/>
   <text width="103" height="20" x="445" y="704" style="fill:black;" font-family="Arial" font-size="16px">Phone</text>
   <rect width="103" height="20" x="440" y="710" style="fill:none;stroke:black;"/>
   <text width="103" height="20" x="445" y="724" style="fill:black;" font-family="Arial" font-size="16px">Country</text>
   <rect width="103" height="20" x="440" y="730" style="fill:none;stroke:black;"/>
   <text width="103" height="20" x="445" y="744" style="fill:black;" font-family="Arial" font-size="16px">RegisteredAt</text>
   <rect width="86" height="20" x="570" y="20" style="fill:#007;stroke:black;"/>
   <text width="86" height="20" x="575" y="34" style="fill:#fff;" font-family="Arial" font-size="16px"> Yummie</text>
   <rect width="86" height="20" x="570" y="40" style="fill:none;stroke:black;"/>
   <text width="86" height="20" x="575" y="54" style="fill:black;" font-family="Arial" font-size="16px">EventID</text>
   <rect width="86" height="20" x="570" y="60" style="fill:none;stroke:black;"/>
   <text width="86" height="20" x="575" y="74" style="fill:black;" font-family="Arial" font-size="16px">StarRating</text>
   <rect width="86" height="20" x="570" y="80" style="fill:none;stroke:black;"/>
   <text width="86" height="20" x="575" y="94" style="fill:black;" font-family="Arial" font-size="16px">Cuisine</text>
</svg>
